HIERARCHY
ROOT Hips
{
	OFFSET 0.000000 0.000000 0.000000
	CHANNELS 6 Xposition Yposition Zposition Zrotation Yrotation Xrotation
	JOINT Spine
	{
		OFFSET -0.000000 4.110450 0.000011
		CHANNELS 3 Zrotation Yrotation Xrotation
		JOINT Spine1
		{
			OFFSET 0.000002 4.048012 -0.713759
			CHANNELS 3 Zrotation Yrotation Xrotation
			JOINT Spine2
			{
				OFFSET 0.000001 4.094810 -0.358239
				CHANNELS 3 Zrotation Yrotation Xrotation
				JOINT Spine3
				{
					OFFSET -0.000000 4.110450 0.000011
					CHANNELS 3 Zrotation Yrotation Xrotation
					JOINT Neck
					{
						OFFSET -0.000001 5.284870 0.528504
						CHANNELS 3 Zrotation Yrotation Xrotation
						JOINT Neck1
						{
							OFFSET -0.000000 1.955378 0.171075
							CHANNELS 3 Zrotation Yrotation Xrotation
							JOINT Head
							{
								OFFSET -0.000001 1.933029 0.340855
								CHANNELS 3 Zrotation Yrotation Xrotation
								End Site
								{
									OFFSET -0.000000 3.409050 0.000009
								}
							}
						}
					}
					JOINT RightShoulder
					{
						OFFSET -0.000000 3.699409 0.000010
						CHANNELS 3 Zrotation Yrotation Xrotation
						JOINT RightArm
						{
							OFFSET -6.700040 0.000000 -0.000017
							CHANNELS 3 Zrotation Yrotation Xrotation
							JOINT RightForeArm
							{
								OFFSET -11.235020 0.000000 -0.000028
								CHANNELS 3 Zrotation Yrotation Xrotation
								JOINT RightHand
								{
									OFFSET -9.568150 0.000000 -0.000024
									CHANNELS 3 Zrotation Yrotation Xrotation
									End Site
									{
										OFFSET -4.298880 0.000000 -0.041351
									}
								}
							}
						}
					}
					JOINT LeftShoulder
					{
						OFFSET -0.000000 3.699409 0.000010
						CHANNELS 3 Zrotation Yrotation Xrotation
						JOINT LeftArm
						{
							OFFSET 6.700040 0.000000 0.000017
							CHANNELS 3 Zrotation Yrotation Xrotation
							JOINT LeftForeArm
							{
								OFFSET 11.235018 0.000000 0.000028
								CHANNELS 3 Zrotation Yrotation Xrotation
								JOINT LeftHand
								{
									OFFSET 9.568150 0.000000 0.000024
									CHANNELS 3 Zrotation Yrotation Xrotation
									End Site
									{
										OFFSET 4.298880 0.000000 -0.041329
									}
								}
							}
						}
					}
				}
			}
		}
	}
	JOINT RightUpLeg
	{
		OFFSET -3.636760 0.000000 -0.000009
		CHANNELS 3 Zrotation Yrotation Xrotation
		JOINT RightLeg
		{
			OFFSET 0.000000 -16.350660 -0.000043
			CHANNELS 3 Zrotation Yrotation Xrotation
			JOINT RightFoot
			{
				OFFSET 0.000000 -15.870981 -0.000041
				CHANNELS 3 Zrotation Yrotation Xrotation
				JOINT RightToeBase
				{
					OFFSET -0.000012 -1.168873 4.577627
					CHANNELS 3 Zrotation Yrotation Xrotation
					End Site
					{
						OFFSET -0.000008 -0.000008 3.324340
					}
				}
			}
		}
	}
	JOINT LeftUpLeg
	{
		OFFSET 3.636760 0.000000 0.000009
		CHANNELS 3 Zrotation Yrotation Xrotation
		JOINT LeftLeg
		{
			OFFSET 0.000000 -16.350660 -0.000043
			CHANNELS 3 Zrotation Yrotation Xrotation
			JOINT LeftFoot
			{
				OFFSET 0.000000 -15.870981 -0.000041
				CHANNELS 3 Zrotation Yrotation Xrotation
				JOINT LeftToeBase
				{
					OFFSET -0.000012 -1.168873 4.577627
					CHANNELS 3 Zrotation Yrotation Xrotation
					End Site
					{
						OFFSET -0.000010 -0.000011 3.876270
					}
				}
			}
		}
	}
}
MOTION
Frames: 15
Frame Time: 0.008333
0.3534 -0.025399 -0.0183 -31.921770 87.894925 -32.581201 -0.215643 1.082455 0.196693 -0.120390 1.097125 0.197659 0.260147 1.103277 0.051500 0.260147 1.103277 0.051500 -2.287629 -4.415833 -9.723958 -0.045452 -4.472018 -2.319576 4.345833 -4.731287 7.801567 -2.975711 -4.014892 0.208508 21.113182 7.853796 -37.946690 0.000161 36.389192 17.748163 3.616250 -16.315802 -0.000040 -1.518103 -1.517496 0.040204 -15.598260 -11.087117 -24.956825 -0.000033 -31.808912 18.953795 -1.709930 16.394916 -0.000008 0.138184 -16.570857 2.782904 0.000018 -0.000001 7.388401 13.249930 -11.644667 -3.497535 0.000006 0.000001 2.132003 -1.781327 13.596969 3.346955 0.000013 -0.000001 5.344699 0.302545 12.137016 -4.715855 0.000018 0.000000 6.892399 
0.3672 -0.026699 -0.019 -31.860268 87.888094 -32.518059 -0.207613 1.083593 0.187543 -0.112367 1.097578 0.188415 0.257625 1.103061 0.055550 0.257625 1.103061 0.055550 -2.297668 -4.411947 -9.730569 -0.051173 -4.466971 -2.325633 4.344908 -4.726954 7.796401 -2.982811 -4.002491 0.208408 21.115274 7.840255 -37.952902 0.000166 36.398095 17.767368 3.614266 -16.313466 0.000001 -1.510104 -1.510296 0.039804 -15.625608 -11.086492 -24.965950 -0.000035 -31.805917 18.963797 -1.720795 16.392813 -0.000035 0.131115 -16.568521 2.802403 0.000018 -0.000001 7.393800 13.265220 -11.634403 -3.514142 0.000005 -0.000001 2.140101 -1.776189 13.610102 3.352220 0.000013 -0.000002 5.378400 0.308059 12.131914 -4.739373 0.000018 -0.000002 6.880301 
0.382 -0.027699 -0.0196 -31.736689 87.878081 -32.396759 -0.199907 1.086530 0.176877 -0.104466 1.099832 0.177763 0.254088 1.104628 0.063887 0.254088 1.104628 0.063888 -2.301590 -4.407798 -9.737013 -0.053713 -4.462300 -2.332634 4.342896 -4.722256 7.788838 -2.986710 -3.990292 0.208008 21.113537 7.827539 -37.956017 0.000164 36.399605 17.771264 3.603437 -16.306155 0.000055 -1.500004 -1.512396 0.039604 -15.649130 -11.077110 -24.956579 -0.000035 -31.805015 18.956697 -1.716488 16.390668 0.000002 0.122797 -16.561653 2.830484 0.000018 -0.000002 7.392201 13.273989 -11.628974 -3.523413 0.000007 0.000002 2.143199 -1.769053 13.623697 3.370488 0.000013 -0.000000 5.400400 0.291324 12.129101 -4.775398 0.000018 0.000000 6.900100 
0.397 -0.028599 -0.0197 -31.570999 87.864216 -32.236130 -0.193183 1.089975 0.167095 -0.097444 1.102693 0.168094 0.252868 1.106789 0.073072 0.252868 1.106789 0.073072 -2.316482 -4.401721 -9.749307 -0.056583 -4.455445 -2.340414 4.354467 -4.716789 7.787288 -2.990310 -3.979191 0.207707 21.111544 7.820084 -37.963021 0.000167 36.402897 17.784467 3.599501 -16.301367 0.000034 -1.492504 -1.522096 0.039704 -15.670884 -11.049637 -24.944990 -0.000033 -31.812214 18.962897 -1.724091 16.376630 0.000025 0.114258 -16.553860 2.863915 0.000018 0.000000 7.385501 13.281064 -11.617418 -3.535346 0.000004 0.000002 2.155701 -1.760642 13.635288 3.395179 0.000013 0.000000 5.416501 0.287215 12.131774 -4.802317 0.000017 -0.000005 6.908299 
0.412 -0.0294 -0.0194 -31.475370 87.850323 -32.146910 -0.185517 1.093228 0.159633 -0.089583 1.105257 0.160542 0.250515 1.108659 0.080532 0.250515 1.108659 0.080533 -2.326136 -4.393689 -9.770552 -0.057025 -4.446793 -2.349587 4.364271 -4.709328 7.794749 -2.996310 -3.968392 0.207608 21.117360 7.812636 -37.970818 0.000164 36.401695 17.811064 3.594500 -16.287336 -0.000052 -1.481904 -1.535996 0.039704 -15.691434 -11.015922 -24.937106 -0.000035 -31.818412 18.988595 -1.731691 16.365092 -0.000027 0.109946 -16.525101 2.899955 0.000018 0.000001 7.376800 13.298809 -11.626704 -3.550702 0.000005 0.000001 2.166600 -1.748904 13.649642 3.417409 0.000013 -0.000001 5.441300 0.265041 12.129775 -4.838671 0.000017 0.000000 6.915303 
0.4252 -0.030201 -0.0198 -31.399770 87.837640 -32.061287 -0.174844 1.096143 0.142229 -0.078716 1.107202 0.143152 0.242426 1.109625 0.091279 0.242426 1.109625 0.091279 -2.325233 -4.386481 -9.788675 -0.055539 -4.439268 -2.359907 4.364298 -4.701698 7.795505 -2.995810 -3.955091 0.206808 21.120494 7.805755 -37.976897 0.000161 36.397593 17.835161 3.589396 -16.271614 0.000002 -1.468404 -1.546596 0.039604 -15.710931 -10.987126 -24.950864 -0.000032 -31.823610 19.021197 -1.749996 16.355655 0.000012 0.106703 -16.538904 2.914833 0.000018 -0.000003 7.370200 13.301632 -11.600244 -3.553413 0.000004 -0.000002 2.162299 -1.744302 13.654636 3.417281 0.000013 0.000001 5.467502 0.275263 12.145129 -4.856045 0.000018 0.000000 6.902199 
0.4385 -0.031201 -0.020099 -31.261042 87.827524 -31.913635 -0.168579 1.098274 0.124546 -0.072255 1.108862 0.125478 0.238092 1.110675 0.104897 0.238093 1.110675 0.104897 -2.330840 -4.379927 -9.803329 -0.052896 -4.432707 -2.373098 4.376393 -4.695256 7.784297 -2.999610 -3.949092 0.206808 21.133104 7.819637 -38.021023 0.000168 36.395199 17.867372 3.600152 -16.287443 -0.000010 -1.458904 -1.551396 0.039504 -15.731905 -10.970339 -24.986067 -0.000036 -31.828313 19.040493 -1.763831 16.353775 0.000018 0.099267 -16.553699 2.931076 0.000018 0.000001 7.365000 13.311933 -11.570642 -3.560417 0.000006 -0.000002 2.157499 -1.743527 13.650615 3.422610 0.000013 -0.000000 5.486901 0.269669 12.164178 -4.884941 0.000016 -0.000004 6.915502 
0.4527 -0.032101 -0.020499 -31.123584 87.816719 -31.776273 -0.162868 1.100033 0.114552 -0.066347 1.110037 0.115492 0.235095 1.111338 0.115239 0.235095 1.111338 0.115239 -2.336106 -4.371465 -9.817606 -0.050131 -4.424139 -2.386407 4.387502 -4.686795 7.772537 -3.007809 -3.948991 0.207308 21.150591 7.840582 -38.058681 0.000167 36.386696 17.904967 3.615283 -16.283917 0.000023 -1.451704 -1.545596 0.039204 -15.754960 -10.964753 -25.016454 -0.000035 -31.828822 19.054995 -1.753172 16.355880 -0.000024 0.087341 -16.570153 2.959020 0.000018 0.000001 7.359900 13.336591 -11.537223 -3.570513 0.000005 -0.000001 2.181201 -1.740076 13.638808 3.445855 0.000014 -0.000001 5.490700 0.252308 12.185000 -4.905503 0.000017 -0.000002 6.911599 
0.4675 -0.032902 -0.020799 -30.896467 87.801269 -31.548132 -0.157999 1.102289 0.102342 -0.061381 1.111913 0.103290 0.233031 1.112794 0.127203 0.233031 1.112794 0.127203 -2.335273 -4.361770 -9.838353 -0.047286 -4.414273 -2.401520 4.390172 -4.676521 7.765428 -3.017709 -3.943691 0.207708 21.165650 7.847373 -38.066246 0.000164 36.385196 17.936061 3.631428 -16.278004 0.000022 -1.440704 -1.531097 0.038504 -15.781924 -10.966100 -25.048843 -0.000035 -31.822715 19.091192 -1.751203 16.339349 -0.000000 0.079494 -16.574748 2.989360 0.000018 -0.000002 7.350000 13.313743 -11.504567 -3.569217 0.000006 0.000000 2.167001 -1.735405 13.642773 3.473822 0.000014 -0.000001 5.486401 0.244095 12.201032 -4.922793 0.000018 -0.000001 6.919003 
0.4821 -0.033699 -0.020299 -30.785698 87.781079 -31.431578 -0.150575 1.105837 0.087777 -0.053660 1.114785 0.088739 0.231335 1.114957 0.137476 0.231336 1.114956 0.137477 -2.335193 -4.353356 -9.859680 -0.045586 -4.405556 -2.416743 4.391517 -4.667519 7.758807 -3.022509 -3.934091 0.207608 21.169972 7.845758 -38.060898 0.000165 36.389103 17.900264 3.635448 -16.304440 0.000035 -1.427204 -1.522396 0.037904 -15.813664 -10.961240 -25.085167 -0.000034 -31.820212 19.132796 -1.767315 16.328097 0.000054 0.077518 -16.571801 3.016720 0.000018 -0.000002 7.329401 13.335453 -11.494399 -3.577150 0.000006 0.000003 2.193400 -1.723659 13.662095 3.495342 0.000014 -0.000001 5.486801 0.225969 12.200530 -4.945182 0.000018 0.000001 6.926400 
0.4965 -0.034199 -0.019899 -30.650744 87.762241 -31.283352 -0.144364 1.108875 0.067492 -0.047153 1.117258 0.068467 0.230407 1.116904 0.151164 0.230407 1.116904 0.151163 -2.333315 -4.345667 -9.875895 -0.045944 -4.397232 -2.433601 4.385597 -4.658333 7.741185 -3.025209 -3.923591 0.207208 21.171273 7.846237 -38.057473 0.000165 36.385695 17.899066 3.628552 -16.319738 -0.000006 -1.417704 -1.515396 0.037504 -15.834308 -10.951827 -25.094200 -0.000030 -31.814215 19.145194 -1.763587 16.316354 0.000038 0.074753 -16.582448 3.033432 0.000018 -0.000001 7.316399 13.349931 -11.463539 -3.579406 0.000007 -0.000001 2.204001 -1.714861 13.681958 3.509046 0.000014 -0.000001 5.485500 0.212681 12.196664 -4.964676 0.000018 -0.000002 6.933502 
0.511 -0.035 -0.019499 -30.492994 87.748403 -31.119609 -0.139641 1.111034 0.053082 -0.042235 1.118941 0.053965 0.227634 1.118067 0.162612 0.227634 1.118067 0.162613 -2.324910 -4.339347 -9.886280 -0.045452 -4.390678 -2.451511 4.373453 -4.649882 7.713119 -3.026009 -3.907592 0.206408 21.173308 7.835027 -38.044403 0.000168 36.386194 17.897864 3.628419 -16.322238 -0.000035 -1.399104 -1.512796 0.036903 -15.862665 -10.939141 -25.106865 -0.000034 -31.809618 19.158489 -1.770279 16.308806 0.000032 0.069104 -16.592321 3.061041 0.000018 -0.000002 7.300098 13.334724 -11.423465 -3.570531 0.000006 0.000002 2.185602 -1.709366 13.689107 3.529081 0.000013 -0.000000 5.484401 0.204457 12.202088 -4.979478 0.000018 -0.000000 6.894402 
0.5251 -0.035702 -0.019099 -30.455605 87.737468 -31.080386 -0.133956 1.113002 0.041990 -0.036451 1.120428 0.042880 0.226648 1.119027 0.173394 0.226648 1.119027 0.173395 -2.319037 -4.334344 -9.897723 -0.048160 -4.384860 -2.468978 4.357539 -4.642555 7.687620 -3.030811 -3.895091 0.206108 21.182300 7.835077 -38.070064 0.000164 36.375398 17.916570 3.638145 -16.299970 -0.000039 -1.390104 -1.522597 0.036904 -15.878069 -10.916767 -25.115232 -0.000036 -31.814021 19.122795 -1.789841 16.332299 0.000019 0.063372 -16.602510 3.095571 0.000018 -0.000002 7.274401 13.358267 -11.413617 -3.582709 0.000004 -0.000001 2.219499 -1.700706 13.686796 3.553400 0.000014 0.000000 5.485699 0.188959 12.214296 -5.003968 0.000017 -0.000003 6.897302 
0.5398 -0.0364 -0.018299 -30.387973 87.724880 -31.010664 -0.129522 1.114367 0.028276 -0.031920 1.121417 0.029169 0.228096 1.119574 0.186023 0.228096 1.119573 0.186023 -2.312300 -4.326030 -9.918586 -0.051291 -4.375463 -2.486924 4.338214 -4.631962 7.674147 -3.040910 -3.877691 0.205808 21.189354 7.823337 -38.061950 0.000165 36.375402 17.906169 3.649259 -16.279638 0.000017 -1.382604 -1.532696 0.037004 -15.892091 -10.882754 -25.096145 -0.000036 -31.817815 19.108298 -1.796415 16.338957 -0.000033 0.058516 -16.606550 3.130915 0.000018 0.000001 7.249600 13.384131 -11.396917 -3.585569 0.000006 -0.000003 2.240299 -1.691778 13.684590 3.580502 0.000014 -0.000001 5.481000 0.194318 12.231331 -5.016840 0.000018 0.000002 6.901300 
0.5533 -0.037201 -0.017799 -30.245355 87.716418 -30.860478 -0.129192 1.116436 0.014381 -0.031392 1.123409 0.015282 0.232409 1.121517 0.196613 0.232409 1.121518 0.196613 -2.308000 -4.321387 -9.937297 -0.057934 -4.369228 -2.505491 4.314743 -4.624624 7.655773 -3.057309 -3.869891 0.206508 21.205483 7.806148 -38.033324 0.000166 36.355495 17.955760 3.607326 -16.173132 -0.000000 -1.376104 -1.554797 0.037304 -15.907229 -10.840816 -25.077999 -0.000034 -31.819109 19.120500 -1.805478 16.331247 0.000073 0.053172 -16.611140 3.159101 0.000018 -0.000001 7.226500 13.351579 -11.374243 -3.567971 0.000004 0.000003 2.207500 -1.689290 13.681070 3.593019 0.000014 0.000000 5.488300 0.179443 12.242076 -5.041236 0.000017 -0.000000 6.914801 
